Prometheus (2012)  - 1080p 3D DUBLADO - PT-BR - DEJAVUBR

=======================================================
==== w w w . t h e p i r a t e f i l m e s . c o m ==== 
=======================================================

2089. Elizabeth Shaw (Noomi Rapace) e Charlie Holloway (Logan Marshall-Green) são exploradores que encontram a mesma pintura em várias cavernas na Terra. Com base nisto, eles desenvolvem uma teoria em que a pintura aponta para um lugar específico do universo, que teria alguma relação com o início da vida no planeta. A dupla convence um milionário, Peter Weyland (Guy Pearce), a bancar uma cara expedição interestelar para investigar o assunto. Desta forma, Elizabeth e Charlie entram para a tripulação da nave Prometheus, composta pelo robô David (Michael Fassbender), a diretora Meredith Vickers (Charlize Theron), o capitão Janek (Idris Elba), entre outros. Todos, com exceção de David, hibernam em sono criogênico até que a nave chegue ao objetivo, o que acontece em 2093. Encantados com a descoberta de um novo mundo e a possibilidade de revelarem o segredo da origem da vida na Terra, Elizabeth e Charlie não percebem que o local é também bastante perigoso.

Lançamento: 	15 de junho de 2012 (2h 3min) 
Dirigido por:	Ridley Scott
Com:		Noomi Rapace, Michael Fassbender, Charlize Theron mais
Gênero:		Ficção científica , Suspense
Nacionalidade:	EUA
Formato: 	MP4
Qualidade: 	1080p (Full HD) 3D(HSBS) 
Idioma: 	PT-BR (Audio 5.1)
OBS:		Filmes 3D só funcionam em TVs ou Monitores 3D

PARA MAIS FILMES VISITEM:
=======================================================
==== w w w . t h e p i r a t e f i l m e s . c o m ====
=======================================================	

AO FIM DO DOWNLOAD FIQUE SEMEANDO/ENVIANDO, PARA QUE EU POSSA ENVIAR OUTROS FILMES COM QUALIDADE! Obrigado!



INFO:

Video
ID                                       : 1
Format                                   : AVC
Format/Info                              : Advanced Video Codec
Format profile                           : High@L4.0
Format settings, CABAC                   : Yes
Format settings, ReFrames                : 4 frames
Codec ID                                 : avc1
Codec ID/Info                            : Advanced Video Coding
Duration                                 : 2h 3mn
Bit rate                                 : 2 106 Kbps
Width                                    : 1 920 pixels
Height                                   : 1 080 pixels
Display aspect ratio                     : 16:9
Frame rate mode                          : Variable
Frame rate                               : 23.976 fps
Minimum frame rate                       : 23.976 fps
Maximum frame rate                       : 24.024 fps
Color space                              : YUV
Chroma subsampling                       : 4:2:0
Bit depth                                : 8 bits
Scan type                                : Progressive
Bits/(Pixel*Frame)                       : 0.042
Stream size                              : 1.82 GiB (97%)
Writing library                          : x264 core 125 r2200 999b753


Audio
ID                                       : 2
Format                                   : AAC
Format/Info                              : Advanced Audio Codec
Format profile                           : LC
Codec ID                                 : 40
Duration                                 : 2h 3mn
Bit rate mode                            : Constant
Bit rate                                 : 61.6 Kbps
Channel(s)                               : 2 channels
Channel positions                        : Front: L R
Sampling rate                            : 48.0 KHz
Compression mode                         : Lossy
Stream size                              : 54.5 MiB (3%)